<svg width="35" height="35" viewBox="0 0 35 35" fill="none" xmlns="http://www.w3.org/2000/svg">
<path d="M9.07017 2.14565C9.06357 2.14506 9.05692 2.14515 9.05034 2.14592C9.02327 2.14921 8.99784 2.16301 8.95478 2.18756C8.86864 2.23671 8.735 2.36508 8.61031 2.56244C8.36094 2.95728 8.15962 3.59795 8.09652 4.08959C7.95953 5.15757 8.33031 5.70916 9.00522 6.23853C9.34702 6.5065 9.77331 6.73947 10.2298 6.95733C10.009 6.02299 10.0118 5.08811 9.9747 4.30095C9.94605 3.69379 9.89048 3.17241 9.76231 2.82282C9.63564 2.47747 9.4968 2.30144 9.14796 2.1652C9.11569 2.15454 9.09102 2.14729 9.07017 2.14565ZM16.6725 2.93028C14.7964 2.93862 12.9267 3.01142 11.1018 3.12032C11.1627 3.48632 11.1859 3.86243 11.2038 4.24299C11.2071 4.31203 11.2101 4.38141 11.2132 4.45059C12.6961 5.83747 13.5381 5.94158 14.2774 5.85093C14.6545 5.80466 15.0246 5.68024 15.4484 5.57907C15.5183 5.56256 15.5885 5.54757 15.6591 5.53409C16.2388 4.96958 17.0172 4.5318 17.9383 4.16465C18.4873 3.94537 19.0762 3.84376 19.667 3.86639C20.2258 3.88711 20.7569 4.01473 21.2292 4.21024C21.6735 4.39413 22.0713 4.63195 22.4063 4.90956C22.5594 4.86717 22.7151 4.84612 22.8724 4.84345C23.3628 4.83525 23.8681 5 24.3531 5.21157C25.1291 5.55008 25.8994 6.07508 26.5263 6.64083C26.6715 6.77187 26.8093 6.90196 26.9387 7.033L28.0337 6.82041L28.2135 6.68882C29.1165 6.02792 29.7708 5.26332 30.2649 4.54172C26.3915 3.37899 21.9664 2.95851 17.5207 2.93089C17.2379 2.92916 16.9553 2.92894 16.6726 2.93021L16.6725 2.93028ZM6.96483 3.42616C6.14244 3.49668 5.32037 3.57082 4.49863 3.6486C4.57615 4.41409 4.92711 5.13015 5.73293 5.87575L5.94963 6.07632L7.47596 6.40499C7.01412 5.75523 6.74861 4.92514 6.87597 3.93298C6.89709 3.7685 6.92655 3.59842 6.96483 3.42616ZM19.4779 5.09215C19.1247 5.09597 18.7599 5.1618 18.394 5.30768C17.4475 5.68489 16.748 6.13155 16.3481 6.59516C15.9482 7.05864 15.8071 7.50216 15.9195 8.12491C15.9259 8.15973 15.9328 8.19413 15.9401 8.22813L18.2362 8.72271L22.9981 7.79808C22.6712 7.39968 22.3825 6.97647 22.1609 6.51361C21.9907 6.15821 21.4559 5.63588 20.7587 5.34733C20.41 5.20302 20.0279 5.10978 19.6285 5.09426C19.5783 5.09232 19.5281 5.09157 19.4779 5.09215ZM23.3809 6.17564C23.614 6.54328 23.8751 6.92609 24.1753 7.28443C24.2481 7.36627 24.3222 7.44694 24.3976 7.52642L25.433 7.32545C24.9483 6.93033 24.3777 6.56488 23.861 6.33943C23.7057 6.27182 23.5451 6.21704 23.3809 6.17564ZM11.4524 6.21625C11.5167 6.60658 11.6027 6.9764 11.7121 7.31745L14.6642 7.9534C14.6473 7.63855 14.6801 7.323 14.7614 7.01838C14.6507 7.04019 14.5393 7.05813 14.4273 7.07217C13.6206 7.17109 12.6279 7.00819 11.4524 6.21625ZM6.28425 7.40714L5.71119 12.6409L12.1502 12.7985C13.6086 11.4823 15.4728 10.6885 17.5149 10.6885C19.6927 10.6885 21.6683 11.5913 23.165 13.0678L28.4958 13.1982L28.1512 8.05108L18.2233 9.97868L6.28425 7.40714ZM17.5149 11.919C13.5348 11.919 10.254 15.5243 10.254 20.0626C10.254 24.601 13.5348 28.2062 17.5149 28.2062C21.4951 28.2062 24.7759 24.601 24.7759 20.0626C24.7759 15.5242 21.495 11.919 17.5149 11.919ZM5.18059 13.8587L4.75122 18.1548C4.37155 21.9528 5.31423 25.835 6.82135 29.7462L6.93482 30.0409L6.76181 30.3047C6.24248 31.0969 5.40945 31.7992 4.46753 32.4526C5.47699 32.539 6.5019 32.6087 7.53803 32.6646L9.1051 30.6818L10.0704 31.4447L9.05 32.736C10.0186 32.7756 10.9954 32.8042 11.978 32.8234L12.0541 31.0614L13.2834 31.1145L13.2087 32.8428C14.3051 32.8559 15.407 32.8572 16.5102 32.8515V31.0995H17.7407V32.8427C18.8941 32.8309 20.0468 32.8115 21.1958 32.7868L20.9293 31.1382L22.144 30.9418L22.4377 32.7588C23.5614 32.7313 24.6722 32.6992 25.78 32.6667L24.8298 31.0795L25.8856 30.4475L27.1895 32.6259C28.3173 32.5921 29.4341 32.5584 30.5324 32.5274C29.6622 31.723 28.7968 30.8711 28.3153 29.83L28.2394 29.6658L28.2645 29.4865C28.2645 29.4865 29.1119 23.3587 29.1212 20.4001C29.1262 18.8046 28.969 16.5912 28.7695 14.4358L24.2267 14.3247C25.3437 15.9158 26.0063 17.9101 26.0063 20.0626C26.0063 25.199 22.2345 29.4367 17.5149 29.4367C12.7953 29.4367 9.02355 25.199 9.02355 20.0626C9.02355 17.762 9.78062 15.6421 11.0403 14.0021L5.18059 13.8587ZM21.418 16.6894C21.8407 16.6796 22.2544 16.8427 22.5856 17.0838C23.0567 17.4266 23.4286 17.9324 23.6678 18.5262C24.1461 19.7138 24.0139 21.3626 22.6244 22.4484C21.4164 23.3923 20.0049 23.5652 18.718 23.1624C18.5718 23.1162 18.4275 23.0639 18.2857 23.0055C17.4132 23.2742 16.3989 23.6252 15.3483 23.6691C14.2161 23.7164 12.9881 23.3042 12.1805 22.0696C11.8165 21.5132 11.496 20.8015 11.3913 20.077C11.3389 19.7147 11.338 19.3415 11.4698 18.9754C11.6017 18.6093 11.9074 18.2624 12.3152 18.1011L12.3251 18.0972L12.3351 18.0937C12.5611 18.013 12.7986 17.9695 13.0385 17.9648C13.4799 17.9561 13.9015 18.0782 14.2573 18.2783C14.7994 18.5832 15.2367 19.0303 15.6726 19.4944C15.7199 19.5448 15.7672 19.5956 15.8145 19.6463C17.8428 19.7377 18.5507 19.2698 19.0541 18.7207C19.3107 18.4405 19.5114 18.1058 19.7679 17.7536C20.0243 17.4014 20.3624 17.0169 20.8831 16.8014C21.0528 16.7311 21.2342 16.6931 21.4179 16.6894H21.418ZM21.4872 17.9147C21.4415 17.9126 21.3958 17.9206 21.3536 17.9384C21.1281 18.0317 20.9701 18.1929 20.7624 18.4781C20.5547 18.7632 20.3231 19.1572 19.9612 19.552C19.4121 20.1512 18.5514 20.6721 17.1431 20.8334C17.6321 21.2459 18.1298 21.5813 18.6179 21.8062L19.5168 22.0961C20.3262 22.2499 21.0838 22.0905 21.8667 21.4788C22.8345 20.7226 22.8469 19.7813 22.5265 18.9859C22.3663 18.5883 22.103 18.2545 21.8616 18.0787C21.7032 17.9634 21.5833 17.9186 21.4872 17.9147ZM13.1105 19.1794C13.0041 19.1809 12.891 19.2041 12.7601 19.2496C12.672 19.2854 12.6597 19.3027 12.6275 19.3922C12.594 19.4856 12.5757 19.6699 12.6091 19.901C12.6758 20.3632 12.9388 20.9811 13.2101 21.3959C13.7996 22.297 14.44 22.4757 15.297 22.4398C15.731 22.4217 16.2064 22.3219 16.6952 22.1909C15.9203 21.6239 15.3151 20.9112 14.7756 20.3367C14.3595 19.8936 13.9786 19.5333 13.6541 19.3507C13.4918 19.2594 13.3556 19.2029 13.2148 19.1851C13.1802 19.1808 13.1454 19.1789 13.1105 19.1794Z" fill="white"/>
</svg>
