<svg width="49" height="49" viewBox="0 0 49 49" fill="none" xmlns="http://www.w3.org/2000/svg">
<path fill-rule="evenodd" clip-rule="evenodd" d="M29.3715 25.1809C29.09 24.3846 28.5685 23.6951 27.8789 23.2076C27.1893 22.72 26.3655 22.4582 25.5209 22.4583V21.4375H23.4792V22.4583C22.3962 22.4583 21.3576 22.8885 20.5919 23.6543C19.8261 24.4201 19.3959 25.4587 19.3959 26.5417C19.3959 27.6246 19.8261 28.6632 20.5919 29.429C21.3576 30.1948 22.3962 30.625 23.4792 30.625V34.7083C22.5911 34.7083 21.8346 34.1418 21.5529 33.3476C21.5111 33.2176 21.4437 33.0974 21.3546 32.994C21.2655 32.8906 21.1566 32.806 21.0343 32.7455C20.912 32.6849 20.7787 32.6494 20.6425 32.6412C20.5062 32.633 20.3697 32.6522 20.241 32.6977C20.1123 32.7431 19.9941 32.814 19.8932 32.9059C19.7924 32.9979 19.711 33.1092 19.6539 33.2332C19.5968 33.3571 19.5651 33.4913 19.5608 33.6277C19.5565 33.7642 19.5795 33.9001 19.6286 34.0274C19.9101 34.8237 20.4315 35.5132 21.1212 36.0008C21.8108 36.4884 22.6346 36.7501 23.4792 36.75V37.7708H25.5209V36.75C26.6038 36.75 27.6425 36.3198 28.4082 35.554C29.174 34.7882 29.6042 33.7496 29.6042 32.6667C29.6042 31.5837 29.174 30.5451 28.4082 29.7793C27.6425 29.0135 26.6038 28.5833 25.5209 28.5833V24.5C25.9431 24.4999 26.355 24.6307 26.6998 24.8744C27.0446 25.1181 27.3054 25.4627 27.4462 25.8608C27.5363 26.1161 27.7242 26.3251 27.9685 26.4419C28.0894 26.4997 28.2206 26.5332 28.3545 26.5403C28.4884 26.5474 28.6223 26.5281 28.7487 26.4835C28.8752 26.4388 28.9916 26.3697 29.0913 26.2801C29.191 26.1905 29.2721 26.0821 29.3299 25.9612C29.3877 25.8402 29.4211 25.709 29.4283 25.5752C29.4354 25.4413 29.4161 25.3073 29.3715 25.1809ZM23.4792 24.5C22.9377 24.5 22.4184 24.7151 22.0355 25.098C21.6526 25.4809 21.4375 26.0002 21.4375 26.5417C21.4375 27.0832 21.6526 27.6025 22.0355 27.9853C22.4184 28.3682 22.9377 28.5833 23.4792 28.5833V24.5ZM25.5209 34.7083C26.0624 34.7083 26.5817 34.4932 26.9645 34.1103C27.3474 33.7275 27.5625 33.2082 27.5625 32.6667C27.5625 32.1252 27.3474 31.6059 26.9645 31.223C26.5817 30.8401 26.0624 30.625 25.5209 30.625V34.7083Z" fill="white"/>
<path fill-rule="evenodd" clip-rule="evenodd" d="M13.427 8.8006C15.9322 7.57458 20.042 6.125 24.5398 6.125C28.9437 6.125 32.9454 7.51435 35.4372 8.72404L35.5781 8.79244C36.3294 9.16402 36.9358 9.51519 37.3625 9.8L33.5916 15.3125C42.285 24.1999 49 42.8719 24.5398 42.8719C0.0796452 42.8719 6.614 24.5388 15.383 15.3125L11.6365 9.8C11.9254 9.61115 12.2919 9.39167 12.7288 9.15892C12.9452 9.04254 13.178 8.92242 13.427 8.8006ZM31.1681 15.24L34.1867 10.827C31.3794 11.0291 28.0393 11.6885 24.8236 12.6195C22.5268 13.2831 19.9747 13.182 17.6114 12.7461C17.0159 12.6359 16.4244 12.5044 15.8383 12.3521L17.7982 15.238C21.999 16.7335 26.9664 16.7335 31.1681 15.24ZM16.6192 16.9765C21.5345 18.8752 27.4421 18.8752 32.3574 16.9744C34.4086 19.1377 36.1249 21.5955 37.4493 24.2662C38.8295 27.0817 39.5808 29.8961 39.4583 32.3216C39.3399 34.6624 38.4191 36.6622 36.3162 38.1485C34.1244 39.6971 30.4382 40.8303 24.5388 40.8303C18.6333 40.8303 14.9297 39.7165 12.7176 38.1853C10.5993 36.7184 9.66935 34.7451 9.53767 32.436C9.39985 30.037 10.1349 27.2369 11.5099 24.402C12.8217 21.6988 14.652 19.0967 16.6192 16.9765ZM15.4452 10.1226C16.2619 10.3655 17.1153 10.5769 17.981 10.7371C20.1758 11.1414 22.3767 11.2006 24.255 10.6565C26.4438 10.0186 28.6701 9.51705 30.9211 9.15483C29.0427 8.58929 26.8459 8.16667 24.5388 8.16667C21.022 8.16667 17.7421 9.14769 15.4452 10.1226Z" fill="white"/>
</svg>
