<svg width="19" height="19" viewBox="0 0 19 19" fill="none" xmlns="http://www.w3.org/2000/svg">
<path d="M16.875 18.1667C17.2397 18.1667 17.5894 18.0218 17.8472 17.7639C18.1051 17.5061 18.25 17.1563 18.25 16.7917V13.5833C18.25 13.2187 18.1051 12.8689 17.8472 12.6111C17.5894 12.3532 17.2397 12.2083 16.875 12.2083C15.8025 12.2083 14.7483 12.0433 13.74 11.7042C13.4989 11.6281 13.2416 11.6195 12.996 11.6792C12.7503 11.739 12.5258 11.865 12.3466 12.0433L11.0266 13.3633C8.7462 12.1189 6.87193 10.2446 5.62748 7.96417L6.93831 6.65333C7.31415 6.29583 7.45165 5.76417 7.28665 5.25083C6.95665 4.25167 6.79165 3.1975 6.79165 2.125C6.79165 1.76033 6.64678 1.41059 6.38892 1.15273C6.13106 0.894866 5.78132 0.75 5.41665 0.75H2.20831C1.84364 0.75 1.4939 0.894866 1.23604 1.15273C0.978179 1.41059 0.833313 1.76033 0.833313 2.125C0.833313 10.9708 8.02915 18.1667 16.875 18.1667ZM2.20831 1.66667H5.41665C5.5382 1.66667 5.65478 1.71496 5.74074 1.80091C5.82669 1.88686 5.87498 2.00344 5.87498 2.125C5.87498 3.29833 6.05831 4.44417 6.41581 5.535C6.46165 5.66333 6.45248 5.84667 6.30581 5.99333L4.49998 7.79C6.01248 10.7508 8.23081 12.9692 11.2008 14.5L12.9883 12.6942C13.1166 12.5658 13.2908 12.5292 13.4558 12.575C14.5558 12.9417 15.7016 13.125 16.875 13.125C16.9965 13.125 17.1131 13.1733 17.1991 13.2592C17.285 13.3452 17.3333 13.4618 17.3333 13.5833V16.7917C17.3333 16.9132 17.285 17.0298 17.1991 17.1158C17.1131 17.2017 16.9965 17.25 16.875 17.25C8.53331 17.25 1.74998 10.4667 1.74998 2.125C1.74998 2.00344 1.79827 1.88686 1.88422 1.80091C1.97018 1.71496 2.08676 1.66667 2.20831 1.66667Z" fill="white"/>
</svg>
