<svg width="27" height="27" viewBox="0 0 27 27" fill="none" xmlns="http://www.w3.org/2000/svg">
<path d="M19.3457 19.5207C19.921 19.5207 20.4727 19.7492 20.8794 20.156C21.2862 20.5628 21.5147 21.1145 21.5147 21.6897C21.5147 22.2649 21.2862 22.8166 20.8794 23.2234C20.4727 23.6302 19.921 23.8587 19.3457 23.8587C18.7705 23.8587 18.2188 23.6302 17.812 23.2234C17.4053 22.8166 17.1768 22.2649 17.1768 21.6897C17.1768 20.4859 18.142 19.5207 19.3457 19.5207ZM1.99396 2.16895H5.54023L6.55964 4.33792H22.5992C22.8868 4.33792 23.1627 4.45218 23.366 4.65556C23.5694 4.85894 23.6837 5.13478 23.6837 5.4224C23.6837 5.60677 23.6295 5.79113 23.5535 5.96465L19.6711 12.9813C19.3024 13.6428 18.5866 14.0983 17.7732 14.0983H9.69381L8.71777 15.866L8.68524 15.9961C8.68524 16.0681 8.7138 16.137 8.76465 16.1879C8.81549 16.2387 8.88445 16.2673 8.95636 16.2673H21.5147V18.4362H8.50087C7.92563 18.4362 7.37394 18.2077 6.96718 17.801C6.56042 17.3942 6.3319 16.8425 6.3319 16.2673C6.3319 15.8877 6.42951 15.5298 6.59218 15.2262L8.06708 12.5692L4.16293 4.33792H1.99396V2.16895ZM8.50087 19.5207C9.07612 19.5207 9.62781 19.7492 10.0346 20.156C10.4413 20.5628 10.6698 21.1145 10.6698 21.6897C10.6698 22.2649 10.4413 22.8166 10.0346 23.2234C9.62781 23.6302 9.07612 23.8587 8.50087 23.8587C7.92563 23.8587 7.37394 23.6302 6.96718 23.2234C6.56042 22.8166 6.3319 22.2649 6.3319 21.6897C6.3319 20.4859 7.2971 19.5207 8.50087 19.5207ZM18.2613 11.9293L21.2761 6.50689H7.56822L10.1276 11.9293H18.2613Z" fill="#DFD0B8"/>
</svg>
