<svg width="28" height="27" viewBox="0 0 28 27" fill="none" xmlns="http://www.w3.org/2000/svg">
<path d="M6.31087 13.327H4.08972L14.0849 3.33179L24.0801 13.327H21.8589M6.31087 13.327V21.101C6.31087 21.6901 6.54489 22.255 6.96143 22.6716C7.37798 23.0881 7.94294 23.3222 8.53203 23.3222H19.6378C20.2269 23.3222 20.7918 23.0881 21.2084 22.6716C21.6249 22.255 21.8589 21.6901 21.8589 21.101V13.327" stroke="#DFD0B8" stroke-width="2" stroke-linecap="round" stroke-linejoin="round"/>
<path d="M10.7532 23.3221V16.6587C10.7532 16.0696 10.9872 15.5046 11.4037 15.0881C11.8203 14.6715 12.3852 14.4375 12.9743 14.4375H15.1955C15.7846 14.4375 16.3495 14.6715 16.7661 15.0881C17.1826 15.5046 17.4166 16.0696 17.4166 16.6587V23.3221" stroke="#DFD0B8" stroke-width="2" stroke-linecap="round" stroke-linejoin="round"/>
</svg>
