<svg width="20" height="16" viewBox="0 0 20 16" fill="none" xmlns="http://www.w3.org/2000/svg">
<path d="M2.81008 16C2.26828 16 1.81627 15.846 1.45402 15.538C1.09178 15.23 0.910269 14.8453 0.909485 14.384V1.616C0.909485 1.15533 1.091 0.771 1.45402 0.463C1.81705 0.155 2.26907 0.000666667 2.81008 0H17.8278C18.3688 0 18.8209 0.154333 19.1839 0.463C19.5469 0.771667 19.728 1.156 19.7272 1.616V14.385C19.7272 14.845 19.5461 15.2293 19.1839 15.538C18.8216 15.8467 18.3692 16.0007 17.8267 16H2.81008ZM2.81008 15H17.8278C18.0082 15 18.174 14.936 18.3253 14.808C18.4767 14.68 18.5519 14.5387 18.5511 14.384V1.616C18.5511 1.462 18.4759 1.32067 18.3253 1.192C18.1748 1.06333 18.0086 0.999333 17.8267 1H2.81008C2.62896 1 2.46273 1.064 2.31141 1.192C2.16008 1.32 2.08481 1.46133 2.0856 1.616V14.385C2.0856 14.5383 2.16087 14.6793 2.31141 14.808C2.46195 14.9367 2.62778 15.0007 2.8089 15M5.61393 12.5H11.4945C11.6623 12.5 11.8022 12.4523 11.9143 12.357C12.0265 12.2617 12.0825 12.1427 12.0825 12C12.0825 11.8573 12.0265 11.7383 11.9143 11.643C11.8022 11.5477 11.6623 11.5 11.4945 11.5H5.61393C5.44692 11.5 5.30696 11.5477 5.19405 11.643C5.08115 11.7383 5.02509 11.8573 5.02587 12C5.02665 12.1427 5.08272 12.2617 5.19405 12.357C5.30539 12.4523 5.44535 12.5 5.61393 12.5ZM5.61393 8.5H15.0228C15.1906 8.5 15.3306 8.45233 15.4427 8.357C15.5548 8.26167 15.6109 8.14267 15.6109 8C15.6109 7.85733 15.5548 7.73833 15.4427 7.643C15.3306 7.54767 15.1906 7.5 15.0228 7.5H5.61393C5.44692 7.5 5.30696 7.54767 5.19405 7.643C5.08115 7.73833 5.02509 7.85733 5.02587 8C5.02665 8.14267 5.08272 8.26167 5.19405 8.357C5.30539 8.45233 5.44535 8.5 5.61393 8.5ZM5.61393 4.5H15.0228C15.1906 4.5 15.3306 4.45233 15.4427 4.357C15.5548 4.26167 15.6109 4.14267 15.6109 4C15.6109 3.85733 15.5548 3.73833 15.4427 3.643C15.3306 3.54767 15.1906 3.5 15.0228 3.5H5.61393C5.44692 3.5 5.30696 3.54767 5.19405 3.643C5.08115 3.73833 5.02509 3.85733 5.02587 4C5.02665 4.14267 5.08272 4.26167 5.19405 4.357C5.30539 4.45233 5.44535 4.5 5.61393 4.5Z" fill="#DFD0B8"/>
</svg>
