<svg width="27" height="27" viewBox="0 0 27 27" fill="none" xmlns="http://www.w3.org/2000/svg">
<path d="M16.6549 16.8095H19.865C20.019 16.8095 20.148 16.7574 20.2521 16.6533C20.3563 16.5492 20.4083 16.4205 20.4083 16.2672V9.76031C20.4083 9.60631 20.3563 9.47762 20.2521 9.37423C20.148 9.27084 20.0193 9.21879 19.8661 9.21807H16.6538C16.5005 9.21807 16.3719 9.27012 16.2677 9.37423C16.1636 9.47834 16.1116 9.60703 16.1116 9.76031V16.2672C16.1116 16.4212 16.1636 16.5499 16.2677 16.6533C16.3719 16.7567 16.5005 16.8087 16.6538 16.8095M17.1961 15.725V10.3026H19.3238V15.725H17.1961ZM10.4397 16.8095H13.6509C13.8049 16.8095 13.9336 16.7574 14.037 16.6533C14.1403 16.5492 14.1924 16.4205 14.1931 16.2672V9.76031C14.1931 9.60631 14.1411 9.47762 14.037 9.37423C13.9328 9.27084 13.8042 9.21879 13.6509 9.21807H10.4397C10.2857 9.21807 10.1567 9.27012 10.0526 9.37423C9.94844 9.47834 9.89711 9.60703 9.89856 9.76031V16.2672C9.89856 16.4212 9.95025 16.5499 10.0536 16.6533C10.157 16.7567 10.2861 16.8087 10.4408 16.8095M10.983 15.725V10.3026H13.1086V15.725H10.983ZM7.97902 16.2672V9.76031C7.97902 9.60631 7.92696 9.47762 7.82285 9.37423C7.71874 9.27084 7.59005 9.21879 7.43677 9.21807C7.2835 9.21734 7.15481 9.2694 7.0507 9.37423C6.94659 9.47906 6.89417 9.60776 6.89345 9.76031V16.2672C6.89345 16.4212 6.9455 16.5499 7.04961 16.6533C7.15372 16.7574 7.28278 16.8095 7.43677 16.8095C7.59077 16.8095 7.71946 16.7574 7.82285 16.6533C7.92624 16.5492 7.97902 16.4205 7.97902 16.2672ZM3.8905 18.8526V7.17489C3.8905 6.69266 4.06221 6.28019 4.40563 5.93749C4.74905 5.5948 5.16116 5.42309 5.64195 5.42236H21.6598C22.1413 5.42236 22.5534 5.59407 22.8961 5.93749C23.2388 6.28091 23.4105 6.69302 23.4113 7.17381V18.8537C23.4113 19.3352 23.2395 19.7473 22.8961 20.09C22.5527 20.4327 22.1406 20.6044 21.6598 20.6052H5.64195C5.16044 20.6052 4.74833 20.4335 4.40563 20.09C4.06294 19.7466 3.89123 19.3349 3.8905 18.8548M5.64303 19.5207H21.6598C21.8543 19.5207 22.0141 19.4581 22.1392 19.3331C22.2642 19.208 22.3268 19.0482 22.3268 18.8537V7.17381C22.3268 6.97932 22.2642 6.81954 22.1392 6.69447C22.0141 6.56939 21.8543 6.50685 21.6598 6.50685H5.64195C5.44746 6.50685 5.28768 6.56939 5.16261 6.69447C5.03753 6.81954 4.97499 6.97969 4.97499 7.17489V18.8537C4.97499 19.0482 5.03753 19.208 5.16261 19.3331C5.28768 19.4581 5.44783 19.5207 5.64303 19.5207Z" fill="#DFD0B8"/>
</svg>
