<svg width="27" height="27" viewBox="0 0 27 27" fill="none" xmlns="http://www.w3.org/2000/svg">
<path d="M9.32812 3.25342C9.87037 3.25342 12.0393 8.13361 12.0393 8.67585C12.0393 9.76033 10.4126 10.8448 9.87037 11.9293C9.32812 13.0138 10.4126 14.0983 11.4971 15.1828C11.92 15.6057 13.6661 17.3517 14.7506 16.8095C15.835 16.2673 16.9195 14.6405 18.004 14.6405C18.5463 14.6405 23.4264 16.8095 23.4264 17.3517C23.4264 19.5207 21.7997 21.1474 20.173 21.6897C18.5463 22.2319 17.4618 22.2319 15.2928 21.6897C13.1238 21.1474 11.4971 20.6052 8.78588 17.894C6.07466 15.1828 5.53242 13.556 4.99018 11.3871C4.44794 9.21809 4.44794 8.13361 4.99018 6.50688C5.53242 4.88015 7.15915 3.25342 9.32812 3.25342Z" stroke="#DFD0B8" stroke-width="2" stroke-linecap="round" stroke-linejoin="round"/>
</svg>
